
 
http://www.imdb.com/title/tt1549920/


The leader of a drug cartel busts out of a courthouse and speeds to the Mexican border, where the only thing in his path is a sheriff and his inexperienced staff.
 


Director: 
Jee-woon Kim

 Writers: 
Andrew Knauer (screenplay), Jeffrey Nachmanoff (rewrite) 

Stars:
 Arnold Schwarzenegger, Forest Whitaker and Johnny Knoxville

Genres:
 Action | Crime | Thriller 




Format                                   : AVI
Format/Info                              : Audio Video Interleave
File size                                : 699 MiB
Duration                                 : 1h 47mn
Overall bit rate                         : 913 Kbps
Writing application                      : Lavf54.59.103

Video
ID                                       : 0
Format                                   : MPEG-4 Visual
Format profile                           : Simple@L3
Format settings, BVOP                    : No
Format settings, QPel                    : No
Format settings, GMC                     : No warppoints
Format settings, Matrix                  : Default (H.263)
Codec ID                                 : XVID
Codec ID/Hint                            : XviD
Duration                                 : 1h 47mn
Bit rate                                 : 774 Kbps
Width                                    : 640 pixels
Height                                   : 256 pixels
Display aspect ratio                     : 2.35:1
Frame rate                               : 24.000 fps
Color space                              : YUV
Chroma subsampling                       : 4:2:0
Bit depth                                : 8 bits
Scan type                                : Progressive
Compression mode                         : Lossy
Bits/(Pixel*Frame)                       : 0.197
Stream size                              : 593 MiB (85%)
Writing library                          : XviD 64

Audio
ID                                       : 1
Format                                   : AC-3
Format/Info                              : Audio Coding 3
Mode extension                           : CM (complete main)
Format settings, Endianness              : Big
Codec ID                                 : 2000
Duration                                 : 1h 47mn
Bit rate mode                            : Constant
Bit rate                                 : 128 Kbps
Channel(s)                               : 2 channels
Channel positions                        : Front: L R
Sampling rate                            : 48.0 KHz
Bit depth                                : 16 bits
Compression mode                         : Lossy
Stream size                              : 98.0 MiB (14%)
Alignment                                : Aligned on interleaves
Interleave, duration                     : 32 ms (0.77 video frame)



    	http://www.shotpix.com/images/86673849875692564806.png
    	http://www.shotpix.com/images/52459580770815308923.png
    	http://www.shotpix.com/images/31612390570311711174.png
    	http://www.shotpix.com/images/75397590523980363649.png
    	http://www.shotpix.com/images/23780146296414762094.png
    	http://www.shotpix.com/images/95587153132252318748.png